<svg width="48" height="48" viewBox="0 0 48 48" fill="none" xmlns="http://www.w3.org/2000/svg">
<g clip-path="url(#clip0_14_1367)">
<g clip-path="url(#clip1_14_1367)">
<path d="M18.1152 27.4255H15.5313C14.5995 27.4255 13.8414 28.218 13.8414 29.1922V34.9152C13.8414 35.5134 14.307 36.0002 14.8792 36.0002H18.7672C19.3395 36.0002 19.8051 35.5134 19.8051 34.9152V29.1922C19.8051 28.218 19.047 27.4255 18.1152 27.4255Z" fill="#232536"/>
<path d="M25.6995 23.9491H23.1157C22.1839 23.9491 21.4258 24.7417 21.4258 25.7158V34.9147C21.4258 35.513 21.8913 35.9997 22.4636 35.9997H26.3516C26.9239 35.9997 27.3894 35.513 27.3894 34.9147V25.7158C27.3894 24.7416 26.6313 23.9491 25.6995 23.9491Z" fill="#232536"/>
<path d="M33.4253 19.9888H30.8414C29.9096 19.9888 29.1515 20.7814 29.1515 21.7555V34.9149C29.1515 35.5131 29.6171 35.9998 30.1893 35.9998H34.0773C34.6496 35.9998 35.1151 35.5131 35.1151 34.9149V21.7555C35.1152 20.7814 34.3571 19.9888 33.4253 19.9888Z" fill="#232536"/>
<path d="M31.3679 12.6682C31.0518 12.2011 30.5378 11.9541 29.9927 12.0065L25.1126 12.4785C24.5676 12.5312 24.1057 12.8729 23.8769 13.3926C23.6481 13.9123 23.7002 14.5015 24.0163 14.9686L24.2887 15.3711L18.2316 19.7468L18.2254 19.7513C17.7956 20.0693 17.51 20.5433 17.4211 21.0858C17.3323 21.6284 17.4509 22.1746 17.755 22.624C18.0591 23.0733 18.5125 23.3719 19.0315 23.4648C19.1439 23.4849 19.2565 23.4949 19.3683 23.4949C19.7711 23.4949 20.1635 23.3657 20.4994 23.1184L26.5662 18.7357L26.8475 19.1511C27.1355 19.5767 27.5878 19.8198 28.0781 19.8198C28.1259 19.8198 28.1741 19.8175 28.2226 19.8128C28.7676 19.7601 29.2295 19.4183 29.4583 18.8986L31.5074 14.2441C31.7362 13.7243 31.6841 13.1352 31.3679 12.6682Z" fill="#FFD050"/>
</g>
</g>
<defs>
<clipPath id="clip0_14_1367">
<rect width="48" height="48" fill="white"/>
</clipPath>
<clipPath id="clip1_14_1367">
<rect width="22.9565" height="24" fill="white" transform="translate(13 12)"/>
</clipPath>
</defs>
</svg>
